<svg xmlns="http://www.w3.org/2000/svg" xmlns:xlink="http://www.w3.org/1999/xlink" contentStyleType="text/css" data-diagram-type="SEQUENCE" height="251px" preserveAspectRatio="none" style="width:574px;height:251px;background:#FFFFFF;" version="1.1" viewBox="0 0 574 251" width="574px" zoomAndPan="magnify"><defs/><g><g><title>IView</title><rect fill="#000000" fill-opacity="0.00000" height="208.041" width="8" x="25.9102" y="36.4883"/><line style="stroke:#181818;stroke-width:0.5;stroke-dasharray:5,5;" x1="29" x2="29" y1="36.4883" y2="244.5293"/></g><g><title>IController</title><rect fill="#000000" fill-opacity="0.00000" height="208.041" width="8" x="194.478" y="36.4883"/><line style="stroke:#181818;stroke-width:0.5;stroke-dasharray:5,5;" x1="198.3809" x2="198.3809" y1="36.4883" y2="244.5293"/></g><g><title>OldAlgorithm</title><rect fill="#000000" fill-opacity="0.00000" height="208.041" width="8" x="390.8486" y="36.4883"/><line style="stroke:#181818;stroke-width:0.5;stroke-dasharray:5,5;" x1="394.0786" x2="394.0786" y1="36.4883" y2="244.5293"/></g><g><title>NewAlgorithm</title><rect fill="#000000" fill-opacity="0.00000" height="108.6758" width="8" x="508.9863" y="135.8535"/><line style="stroke:#181818;stroke-width:0.5;stroke-dasharray:5,5;" x1="512.6187" x2="512.6187" y1="135.8535" y2="244.5293"/></g><g class="participant participant-head" data-participant="IView"><rect fill="#E2E2F0" height="30.4883" rx="2.5" ry="2.5" style="stroke:#181818;stroke-width:0.5;" width="49.8203" x="5" y="5"/><text fill="#000000" font-family="sans-serif" font-size="14" lengthAdjust="spacing" textLength="35.8203" x="12" y="25.5352">IView</text></g><g class="participant participant-head" data-participant="IController"><rect fill="#E2E2F0" height="30.4883" rx="2.5" ry="2.5" style="stroke:#181818;stroke-width:0.5;" width="86.1943" x="155.3809" y="5"/><text fill="#000000" font-family="sans-serif" font-size="14" lengthAdjust="spacing" textLength="72.1943" x="162.3809" y="25.5352">IController</text></g><g class="participant participant-head" data-participant="OldAlgorithm"><rect fill="#E2E2F0" height="30.4883" rx="2.5" ry="2.5" style="stroke:#181818;stroke-width:0.5;" width="105.54" x="342.0786" y="5"/><text fill="#000000" font-family="sans-serif" font-size="14" lengthAdjust="spacing" textLength="91.54" x="349.0786" y="25.5352">OldAlgorithm</text></g><g class="message" data-participant-1="IView" data-participant-2="IController"><polygon fill="#181818" points="186.478,63.7988,196.478,67.7988,186.478,71.7988,190.478,67.7988" style="stroke:#181818;stroke-width:1;"/><line style="stroke:#181818;stroke-width:1;" x1="29.9102" x2="192.478" y1="67.7988" y2="67.7988"/><text fill="#000000" font-family="sans-serif" font-size="13" lengthAdjust="spacing" textLength="144.5679" x="36.9102" y="63.0566">AlgorithmChangeEvent</text></g><g class="message" data-participant-1="IController" data-participant-2="OldAlgorithm"><polygon fill="#181818" points="382.8486,93.1094,392.8486,97.1094,382.8486,101.1094,386.8486,97.1094" style="stroke:#181818;stroke-width:1;"/><line style="stroke:#181818;stroke-width:1;" x1="198.478" x2="388.8486" y1="97.1094" y2="97.1094"/><text fill="#000000" font-family="sans-serif" font-size="13" lengthAdjust="spacing" textLength="172.3706" x="205.478" y="92.3672">removeEventListener(IView)</text></g><g class="message" data-participant-1="IController" data-participant-2="NewAlgorithm"><polygon fill="#181818" points="445.6187,122.4199,455.6187,126.4199,445.6187,130.4199,449.6187,126.4199" style="stroke:#181818;stroke-width:1;"/><line style="stroke:#181818;stroke-width:1;" x1="198.478" x2="451.6187" y1="126.4199" y2="126.4199"/><text fill="#000000" font-family="sans-serif" font-size="13" lengthAdjust="spacing" textLength="89.7876" x="205.478" y="121.6777">new(lastArray)</text></g><rect fill="#E2E2F0" height="30.4883" rx="2.5" ry="2.5" style="stroke:#181818;stroke-width:0.5;" width="110.7354" x="457.6187" y="105.1094"/><text fill="#000000" font-family="sans-serif" font-size="14" lengthAdjust="spacing" textLength="96.7354" x="464.6187" y="125.6445">NewAlgorithm</text><g class="message" data-participant-1="IController" data-participant-2="IView"><polygon fill="#181818" points="40.9102,163.9082,30.9102,167.9082,40.9102,171.9082,36.9102,167.9082" style="stroke:#181818;stroke-width:1;"/><line style="stroke:#181818;stroke-width:1;" x1="34.9102" x2="197.478" y1="167.9082" y2="167.9082"/><text fill="#000000" font-family="sans-serif" font-size="13" lengthAdjust="spacing" textLength="116.7715" x="46.9102" y="163.166">setArray(lastArray)</text></g><g class="message" data-participant-1="IController" data-participant-2="NewAlgorithm"><polygon fill="#181818" points="500.9863,193.2188,510.9863,197.2188,500.9863,201.2188,504.9863,197.2188" style="stroke:#181818;stroke-width:1;"/><line style="stroke:#181818;stroke-width:1;" x1="198.478" x2="506.9863" y1="197.2188" y2="197.2188"/><text fill="#000000" font-family="sans-serif" font-size="13" lengthAdjust="spacing" textLength="149.2588" x="205.478" y="192.4766">addEventListener(IView)</text></g><g class="message" data-participant-1="IController" data-participant-2="NewAlgorithm"><polygon fill="#181818" points="500.9863,222.5293,510.9863,226.5293,500.9863,230.5293,504.9863,226.5293" style="stroke:#181818;stroke-width:1;"/><line style="stroke:#181818;stroke-width:1;" x1="198.478" x2="506.9863" y1="226.5293" y2="226.5293"/><text fill="#000000" font-family="sans-serif" font-size="13" lengthAdjust="spacing" textLength="33.249" x="205.478" y="221.7871">sort()</text></g><!--SRC=[bSvD2i8m48RXVKunoxJW1ReGId4H4DsvZsHi0ca69aEZjpTQy1S4zy_xpPX3m0AhDPY1aZ35Y0mTz74a3kAdmTiqucR69EgLr68VtOFLX76YUP7Ra0KJiZQtzUOpt65vXcrRsuH5HvkbPxQNBtzVgIhZ0dxGj-aEh7D_FrJl48jkbFB18Po8v4ZdAm00]--></g></svg>