<svg xmlns="http://www.w3.org/2000/svg" xmlns:xlink="http://www.w3.org/1999/xlink" contentStyleType="text/css" data-diagram-type="SEQUENCE" height="251px" preserveAspectRatio="none" style="width:600px;height:251px;background:#FFFFFF;" version="1.1" viewBox="0 0 600 251" width="600px" zoomAndPan="magnify"><defs/><g><g><title>IView</title><rect fill="#000000" fill-opacity="0.00000" height="208.041" width="8" x="25.9102" y="36.4883"/><line style="stroke:#181818;stroke-width:0.5;stroke-dasharray:5,5;" x1="29" x2="29" y1="36.4883" y2="244.5293"/></g><g><title>IController</title><rect fill="#000000" fill-opacity="0.00000" height="208.041" width="8" x="169.5825" y="36.4883"/><line style="stroke:#181818;stroke-width:0.5;stroke-dasharray:5,5;" x1="173.4854" x2="173.4854" y1="36.4883" y2="244.5293"/></g><g><title>OldAlgorithmInstance</title><rect fill="#000000" fill-opacity="0.00000" height="208.041" width="8" x="332.0059" y="36.4883"/><line style="stroke:#181818;stroke-width:0.5;stroke-dasharray:5,5;" x1="335.9932" x2="335.9932" y1="36.4883" y2="244.5293"/></g><g><title>NewAlgorithmInstance</title><rect fill="#000000" fill-opacity="0.00000" height="108.6758" width="8" x="506.6289" y="135.8535"/><line style="stroke:#181818;stroke-width:0.5;stroke-dasharray:5,5;" x1="510.0186" x2="510.0186" y1="135.8535" y2="244.5293"/></g><g class="participant participant-head" data-participant="IView"><rect fill="#E2E2F0" height="30.4883" rx="2.5" ry="2.5" style="stroke:#181818;stroke-width:0.5;" width="49.8203" x="5" y="5"/><text fill="#000000" font-family="sans-serif" font-size="14" lengthAdjust="spacing" textLength="35.8203" x="12" y="25.5352">IView</text></g><g class="participant participant-head" data-participant="IController"><rect fill="#E2E2F0" height="30.4883" rx="2.5" ry="2.5" style="stroke:#181818;stroke-width:0.5;" width="86.1943" x="130.4854" y="5"/><text fill="#000000" font-family="sans-serif" font-size="14" lengthAdjust="spacing" textLength="72.1943" x="137.4854" y="25.5352">IController</text></g><g class="participant participant-head" data-participant="OldAlgorithmInstance"><rect fill="#E2E2F0" height="30.4883" rx="2.5" ry="2.5" style="stroke:#181818;stroke-width:0.5;" width="162.0254" x="254.9932" y="5"/><text fill="#000000" font-family="sans-serif" font-size="14" lengthAdjust="spacing" textLength="148.0254" x="261.9932" y="25.5352">OldAlgorithmInstance</text></g><g class="message" data-participant-1="IView" data-participant-2="IController"><polygon fill="#181818" points="161.5825,63.7988,171.5825,67.7988,161.5825,71.7988,165.5825,67.7988" style="stroke:#181818;stroke-width:1;"/><line style="stroke:#181818;stroke-width:1;" x1="29.9102" x2="167.5825" y1="67.7988" y2="67.7988"/><text fill="#000000" font-family="sans-serif" font-size="13" lengthAdjust="spacing" textLength="115.1846" x="36.9102" y="63.0566">ArrayChangeEvent</text></g><g class="message" data-participant-1="IController" data-participant-2="OldAlgorithmInstance"><polygon fill="#181818" points="324.0059,93.1094,334.0059,97.1094,324.0059,101.1094,328.0059,97.1094" style="stroke:#181818;stroke-width:1;"/><line style="stroke:#181818;stroke-width:1;" x1="173.5825" x2="330.0059" y1="97.1094" y2="97.1094"/><text fill="#000000" font-family="sans-serif" font-size="13" lengthAdjust="spacing" textLength="138.4233" x="180.5825" y="92.3672">removeListener(IView)</text></g><g class="message" data-participant-1="IController" data-participant-2="NewAlgorithmInstance"><polygon fill="#181818" points="415.0186,122.4199,425.0186,126.4199,415.0186,130.4199,419.0186,126.4199" style="stroke:#181818;stroke-width:1;"/><line style="stroke:#181818;stroke-width:1;" x1="173.5825" x2="421.0186" y1="126.4199" y2="126.4199"/><text fill="#000000" font-family="sans-serif" font-size="13" lengthAdjust="spacing" textLength="92.6885" x="180.5825" y="121.6777">new(newArray)</text></g><rect fill="#E2E2F0" height="30.4883" rx="2.5" ry="2.5" style="stroke:#181818;stroke-width:0.5;" width="167.2207" x="427.0186" y="105.1094"/><text fill="#000000" font-family="sans-serif" font-size="14" lengthAdjust="spacing" textLength="153.2207" x="434.0186" y="125.6445">NewAlgorithmInstance</text><g class="message" data-participant-1="IController" data-participant-2="IView"><polygon fill="#181818" points="40.9102,163.9082,30.9102,167.9082,40.9102,171.9082,36.9102,167.9082" style="stroke:#181818;stroke-width:1;"/><line style="stroke:#181818;stroke-width:1;" x1="34.9102" x2="172.5825" y1="167.9082" y2="167.9082"/><text fill="#000000" font-family="sans-serif" font-size="13" lengthAdjust="spacing" textLength="119.6724" x="46.9102" y="163.166">setArray(newArray)</text></g><g class="message" data-participant-1="IController" data-participant-2="NewAlgorithmInstance"><polygon fill="#181818" points="498.6289,193.2188,508.6289,197.2188,498.6289,201.2188,502.6289,197.2188" style="stroke:#181818;stroke-width:1;"/><line style="stroke:#181818;stroke-width:1;" x1="173.5825" x2="504.6289" y1="197.2188" y2="197.2188"/><text fill="#000000" font-family="sans-serif" font-size="13" lengthAdjust="spacing" textLength="115.3115" x="180.5825" y="192.4766">addListener(IView)</text></g><g class="message" data-participant-1="IController" data-participant-2="NewAlgorithmInstance"><polygon fill="#181818" points="498.6289,222.5293,508.6289,226.5293,498.6289,230.5293,502.6289,226.5293" style="stroke:#181818;stroke-width:1;"/><line style="stroke:#181818;stroke-width:1;" x1="173.5825" x2="504.6289" y1="226.5293" y2="226.5293"/><text fill="#000000" font-family="sans-serif" font-size="13" lengthAdjust="spacing" textLength="33.249" x="180.5825" y="221.7871">sort()</text></g><!--SRC=[dOwn3e9044Hxlk9A8F47A4m8iRZ4Q4T_UYDSSkmcouRJl_UaCgADnLRptipQFY2PtTxOZac5OuIOnhGYxj6DZWOS5f0Mxt6cpz6tSM09EawMPdLqHTO44oyuXbb1aDA-ogjFzuIqTUiwwuHKvbl7DzfQbg4PkWA_oQy3ZN7U__DPNcJHiYgACNYO6xDU-Fu4]--></g></svg>