<svg xmlns="http://www.w3.org/2000/svg" xmlns:xlink="http://www.w3.org/1999/xlink" contentStyleType="text/css" data-diagram-type="CLASS" height="355px" preserveAspectRatio="none" style="width:1188px;height:355px;background:#FFFFFF;" version="1.1" viewBox="0 0 1188 355" width="1188px" zoomAndPan="magnify"><defs/><g><!--cluster model--><g class="cluster" data-entity="model" data-source-line="2" data-uid="ent0003" id="cluster_model"><path d="M916.5,47.4822 L962.0498,47.4822 A3.75,3.75 0 0 1 964.5498,49.9822 L971.5498,69.9705 L1178.5,69.9705 A2.5,2.5 0 0 1 1181,72.4705 L1181,346.1822 A2.5,2.5 0 0 1 1178.5,348.6822 L916.5,348.6822 A2.5,2.5 0 0 1 914,346.1822 L914,49.9822 A2.5,2.5 0 0 1 916.5,47.4822" fill="none" style="stroke:#000000;stroke-width:1.5;"/><line style="stroke:#000000;stroke-width:1.5;" x1="914" x2="971.5498" y1="69.9705" y2="69.9705"/><text fill="#000000" font-family="sans-serif" font-size="14" font-weight="bold" lengthAdjust="spacing" textLength="44.5498" x="918" y="63.0173">model</text></g><!--cluster view--><g class="cluster" data-entity="view" data-source-line="15" data-uid="ent0009" id="cluster_view"><path d="M8.5,39.2422 L42.6406,39.2422 A3.75,3.75 0 0 1 45.1406,41.7422 L52.1406,61.7305 L303.5,61.7305 A2.5,2.5 0 0 1 306,64.2305 L306,346.1822 A2.5,2.5 0 0 1 303.5,348.6822 L8.5,348.6822 A2.5,2.5 0 0 1 6,346.1822 L6,41.7422 A2.5,2.5 0 0 1 8.5,39.2422" fill="none" style="stroke:#000000;stroke-width:1.5;"/><line style="stroke:#000000;stroke-width:1.5;" x1="6" x2="52.1406" y1="61.7305" y2="61.7305"/><text fill="#000000" font-family="sans-serif" font-size="14" font-weight="bold" lengthAdjust="spacing" textLength="33.1406" x="10" y="54.7773">view</text></g><!--cluster controller--><g class="cluster" data-entity="controller" data-source-line="27" data-uid="ent0013" id="cluster_controller"><path d="M451.5,72.2222 L522.7393,72.2222 A3.75,3.75 0 0 1 525.2393,74.7222 L532.2393,94.7105 L686.5,94.7105 A2.5,2.5 0 0 1 689,97.2105 L689,346.1822 A2.5,2.5 0 0 1 686.5,348.6822 L451.5,348.6822 A2.5,2.5 0 0 1 449,346.1822 L449,74.7222 A2.5,2.5 0 0 1 451.5,72.2222" fill="none" style="stroke:#000000;stroke-width:1.5;"/><line style="stroke:#000000;stroke-width:1.5;" x1="449" x2="532.2393" y1="94.7105" y2="94.7105"/><text fill="#000000" font-family="sans-serif" font-size="14" font-weight="bold" lengthAdjust="spacing" textLength="70.2393" x="453" y="87.7573">controller</text></g><!--class SortingAlgorithm--><g class="entity" data-entity="SortingAlgorithm" data-source-line="2" data-uid="ent0002" id="entity_SortingAlgorithm"><rect fill="#F1F1F1" height="113.9531" rx="2.5" ry="2.5" style="stroke:#181818;stroke-width:0.5;" width="230.7637" x="931.62" y="101.4822"/><ellipse cx="984.5643" cy="117.4822" fill="#A9DCDF" rx="11" ry="11" style="stroke:#181818;stroke-width:1;"/><path d="M984.4276,112.8303 L983.2738,117.9021 L985.5897,117.9021 Z M982.9335,110.5891 L985.9301,110.5891 L989.2753,122.9822 L986.8265,122.9822 L986.0629,119.9192 L982.7841,119.9192 L982.037,122.9822 L979.5883,122.9822 Z " fill="#000000"/><text fill="#000000" font-family="sans-serif" font-size="14" font-style="italic" lengthAdjust="spacing" textLength="116.375" x="1005.0643" y="122.7732">SortingAlgorithm</text><line style="stroke:#181818;stroke-width:0.5;" x1="932.62" x2="1161.3837" y1="133.4822" y2="133.4822"/><line style="stroke:#181818;stroke-width:0.5;" x1="932.62" x2="1161.3837" y1="141.4822" y2="141.4822"/><text fill="#000000" font-family="sans-serif" font-size="14" lengthAdjust="spacing" textLength="152.5576" x="937.62" y="159.0173">SortingAlgorithm(int[])</text><text fill="#000000" font-family="sans-serif" font-size="14" lengthAdjust="spacing" textLength="67.3135" x="937.62" y="175.5056">int[] sort()</text><text fill="#000000" font-family="sans-serif" font-size="14" lengthAdjust="spacing" textLength="193.874" x="937.62" y="191.9939">void addEventListener(IView)</text><text fill="#000000" font-family="sans-serif" font-size="14" lengthAdjust="spacing" textLength="218.7637" x="937.62" y="208.4822">void removeEventListener(IView)</text></g><!--class BubbleSort--><g class="entity" data-entity="BubbleSort" data-source-line="9" data-uid="ent0004" id="entity_BubbleSort"><rect fill="#F1F1F1" height="48" rx="2.5" ry="2.5" style="stroke:#181818;stroke-width:0.5;" width="105.3154" x="930.34" y="284.6822"/><ellipse cx="945.34" cy="300.6822" fill="#ADD1B2" rx="11" ry="11" style="stroke:#181818;stroke-width:1;"/><path d="M947.8131,306.8253 Q947.2321,307.1241 946.5929,307.2735 Q945.9538,307.4229 945.2482,307.4229 Q942.7414,307.4229 941.4215,305.7711 Q940.1017,304.1192 940.1017,300.9981 Q940.1017,297.8687 941.4215,296.2169 Q942.7414,294.565 945.2482,294.565 Q945.9538,294.565 946.6012,294.7144 Q947.2487,294.8638 947.8131,295.1627 L947.8131,297.8853 Q947.1823,297.3043 946.5888,297.0345 Q945.9953,296.7647 945.3644,296.7647 Q944.0197,296.7647 943.3349,297.8314 Q942.6501,298.898 942.6501,300.9981 Q942.6501,303.0899 943.3349,304.1566 Q944.0197,305.2232 945.3644,305.2232 Q945.9953,305.2232 946.5888,304.9534 Q947.1823,304.6837 947.8131,304.1026 Z " fill="#000000"/><text fill="#000000" font-family="sans-serif" font-size="14" lengthAdjust="spacing" textLength="73.3154" x="959.34" y="305.9732">BubbleSort</text><line style="stroke:#181818;stroke-width:0.5;" x1="931.34" x2="1034.6554" y1="316.6822" y2="316.6822"/><line style="stroke:#181818;stroke-width:0.5;" x1="931.34" x2="1034.6554" y1="324.6822" y2="324.6822"/></g><!--class HeapSort--><g class="entity" data-entity="HeapSort" data-source-line="10" data-uid="ent0005" id="entity_HeapSort"><rect fill="#F1F1F1" height="48" rx="2.5" ry="2.5" style="stroke:#181818;stroke-width:0.5;" width="93.7354" x="1071.13" y="284.6822"/><ellipse cx="1086.13" cy="300.6822" fill="#ADD1B2" rx="11" ry="11" style="stroke:#181818;stroke-width:1;"/><path d="M1088.6031,306.8253 Q1088.0221,307.1241 1087.3829,307.2735 Q1086.7438,307.4229 1086.0382,307.4229 Q1083.5314,307.4229 1082.2115,305.7711 Q1080.8917,304.1192 1080.8917,300.9981 Q1080.8917,297.8687 1082.2115,296.2169 Q1083.5314,294.565 1086.0382,294.565 Q1086.7438,294.565 1087.3912,294.7144 Q1088.0387,294.8638 1088.6031,295.1627 L1088.6031,297.8853 Q1087.9723,297.3043 1087.3788,297.0345 Q1086.7853,296.7647 1086.1544,296.7647 Q1084.8097,296.7647 1084.1249,297.8314 Q1083.4401,298.898 1083.4401,300.9981 Q1083.4401,303.0899 1084.1249,304.1566 Q1084.8097,305.2232 1086.1544,305.2232 Q1086.7853,305.2232 1087.3788,304.9534 Q1087.9723,304.6837 1088.6031,304.1026 Z " fill="#000000"/><text fill="#000000" font-family="sans-serif" font-size="14" lengthAdjust="spacing" textLength="61.7354" x="1100.13" y="305.9732">HeapSort</text><line style="stroke:#181818;stroke-width:0.5;" x1="1072.13" x2="1163.8654" y1="316.6822" y2="316.6822"/><line style="stroke:#181818;stroke-width:0.5;" x1="1072.13" x2="1163.8654" y1="324.6822" y2="324.6822"/></g><!--class IView--><g class="entity" data-entity="IView" data-source-line="15" data-uid="ent0008" id="entity_IView"><rect fill="#F1F1F1" height="130.4414" rx="2.5" ry="2.5" style="stroke:#181818;stroke-width:0.5;" width="267.1377" x="22.43" y="93.2422"/><ellipse cx="133.8387" cy="109.2422" fill="#B4A7E5" rx="11" ry="11" style="stroke:#181818;stroke-width:1;"/><path d="M130.2664,105.5073 L130.2664,103.3491 L137.6458,103.3491 L137.6458,105.5073 L135.1805,105.5073 L135.1805,113.584 L137.6458,113.584 L137.6458,115.7422 L130.2664,115.7422 L130.2664,113.584 L132.7318,113.584 L132.7318,105.5073 Z " fill="#000000"/><text fill="#000000" font-family="sans-serif" font-size="14" font-style="italic" lengthAdjust="spacing" textLength="35.8203" x="154.3387" y="114.5332">IView</text><line style="stroke:#181818;stroke-width:0.5;" x1="23.43" x2="288.5677" y1="125.2422" y2="125.2422"/><line style="stroke:#181818;stroke-width:0.5;" x1="23.43" x2="288.5677" y1="133.2422" y2="133.2422"/><text fill="#000000" font-family="sans-serif" font-size="14" lengthAdjust="spacing" textLength="186.8535" x="28.43" y="150.7773">void onSortEvent(SortEvent)</text><text fill="#000000" font-family="sans-serif" font-size="14" lengthAdjust="spacing" textLength="125.6514" x="28.43" y="167.2656">void setArray(int[])</text><text fill="#000000" font-family="sans-serif" font-size="14" lengthAdjust="spacing" textLength="186.4297" x="28.43" y="183.7539">void setAlgorithms(String[])</text><text fill="#000000" font-family="sans-serif" font-size="14" lengthAdjust="spacing" textLength="230.248" x="28.43" y="200.2422">void addEventListener(IController)</text><text fill="#000000" font-family="sans-serif" font-size="14" lengthAdjust="spacing" textLength="255.1377" x="28.43" y="216.7305">void removeEventListener(IController)</text></g><!--class ConsoleView--><g class="entity" data-entity="ConsoleView" data-source-line="23" data-uid="ent0010" id="entity_ConsoleView"><rect fill="#F1F1F1" height="48" rx="2.5" ry="2.5" style="stroke:#181818;stroke-width:0.5;" width="118.3447" x="96.83" y="284.6822"/><ellipse cx="111.83" cy="300.6822" fill="#ADD1B2" rx="11" ry="11" style="stroke:#181818;stroke-width:1;"/><path d="M114.3031,306.8253 Q113.7221,307.1241 113.0829,307.2735 Q112.4438,307.4229 111.7382,307.4229 Q109.2314,307.4229 107.9115,305.7711 Q106.5917,304.1192 106.5917,300.9981 Q106.5917,297.8687 107.9115,296.2169 Q109.2314,294.565 111.7382,294.565 Q112.4438,294.565 113.0912,294.7144 Q113.7387,294.8638 114.3031,295.1627 L114.3031,297.8853 Q113.6723,297.3043 113.0788,297.0345 Q112.4853,296.7647 111.8544,296.7647 Q110.5097,296.7647 109.8249,297.8314 Q109.1401,298.898 109.1401,300.9981 Q109.1401,303.0899 109.8249,304.1566 Q110.5097,305.2232 111.8544,305.2232 Q112.4853,305.2232 113.0788,304.9534 Q113.6723,304.6837 114.3031,304.1026 Z " fill="#000000"/><text fill="#000000" font-family="sans-serif" font-size="14" lengthAdjust="spacing" textLength="86.3447" x="125.83" y="305.9732">ConsoleView</text><line style="stroke:#181818;stroke-width:0.5;" x1="97.83" x2="214.1747" y1="316.6822" y2="316.6822"/><line style="stroke:#181818;stroke-width:0.5;" x1="97.83" x2="214.1747" y1="324.6822" y2="324.6822"/></g><!--class IController--><g class="entity" data-entity="IController" data-source-line="27" data-uid="ent0012" id="entity_IController"><rect fill="#F1F1F1" height="64.4883" rx="2.5" ry="2.5" style="stroke:#181818;stroke-width:0.5;" width="208.2188" x="464.89" y="126.2222"/><ellipse cx="528.6522" cy="142.2222" fill="#B4A7E5" rx="11" ry="11" style="stroke:#181818;stroke-width:1;"/><path d="M525.0799,138.4873 L525.0799,136.3291 L532.4593,136.3291 L532.4593,138.4873 L529.994,138.4873 L529.994,146.564 L532.4593,146.564 L532.4593,148.7222 L525.0799,148.7222 L525.0799,146.564 L527.5453,146.564 L527.5453,138.4873 Z " fill="#000000"/><text fill="#000000" font-family="sans-serif" font-size="14" font-style="italic" lengthAdjust="spacing" textLength="72.1943" x="549.1522" y="147.5132">IController</text><line style="stroke:#181818;stroke-width:0.5;" x1="465.89" x2="672.1088" y1="158.2222" y2="158.2222"/><line style="stroke:#181818;stroke-width:0.5;" x1="465.89" x2="672.1088" y1="166.2222" y2="166.2222"/><text fill="#000000" font-family="sans-serif" font-size="14" lengthAdjust="spacing" textLength="196.2188" x="470.89" y="183.7573">void onViewEvent(ViewEvent)</text></g><!--class Controller--><g class="entity" data-entity="Controller" data-source-line="31" data-uid="ent0014" id="entity_Controller"><rect fill="#F1F1F1" height="48" rx="2.5" ry="2.5" style="stroke:#181818;stroke-width:0.5;" width="100.1611" x="518.92" y="284.6822"/><ellipse cx="533.92" cy="300.6822" fill="#ADD1B2" rx="11" ry="11" style="stroke:#181818;stroke-width:1;"/><path d="M536.3931,306.8253 Q535.8121,307.1241 535.1729,307.2735 Q534.5338,307.4229 533.8282,307.4229 Q531.3214,307.4229 530.0015,305.7711 Q528.6817,304.1192 528.6817,300.9981 Q528.6817,297.8687 530.0015,296.2169 Q531.3214,294.565 533.8282,294.565 Q534.5338,294.565 535.1812,294.7144 Q535.8287,294.8638 536.3931,295.1627 L536.3931,297.8853 Q535.7623,297.3043 535.1688,297.0345 Q534.5753,296.7647 533.9444,296.7647 Q532.5997,296.7647 531.9149,297.8314 Q531.2301,298.898 531.2301,300.9981 Q531.2301,303.0899 531.9149,304.1566 Q532.5997,305.2232 533.9444,305.2232 Q534.5753,305.2232 535.1688,304.9534 Q535.7623,304.6837 536.3931,304.1026 Z " fill="#000000"/><text fill="#000000" font-family="sans-serif" font-size="14" lengthAdjust="spacing" textLength="68.1611" x="547.92" y="305.9732">Controller</text><line style="stroke:#181818;stroke-width:0.5;" x1="519.92" x2="618.0811" y1="316.6822" y2="316.6822"/><line style="stroke:#181818;stroke-width:0.5;" x1="519.92" x2="618.0811" y1="324.6822" y2="324.6822"/></g><!--reverse link SortingAlgorithm to BubbleSort--><g class="link" data-entity-1="SortingAlgorithm" data-entity-2="BubbleSort" data-source-line="12" data-uid="lnk6" id="link_SortingAlgorithm_BubbleSort"><path codeLine="12" d="M1015.4858,232.448 C1005.2458,256.168 1001.03,265.9322 993.11,284.2722" fill="none" id="SortingAlgorithm-backto-BubbleSort" style="stroke:#181818;stroke-width:1;"/><polygon fill="none" points="1022.62,215.9222,1009.9771,230.0699,1020.9944,234.8261,1022.62,215.9222" style="stroke:#181818;stroke-width:1;"/></g><!--reverse link SortingAlgorithm to HeapSort--><g class="link" data-entity-1="SortingAlgorithm" data-entity-2="HeapSort" data-source-line="13" data-uid="lnk7" id="link_SortingAlgorithm_HeapSort"><path codeLine="13" d="M1081.8205,232.1538 C1093.1905,255.8738 1098,265.9322 1106.78,284.2722" fill="none" id="SortingAlgorithm-backto-HeapSort" style="stroke:#181818;stroke-width:1;"/><polygon fill="none" points="1074.04,215.9222,1076.41,234.7473,1087.231,229.5603,1074.04,215.9222" style="stroke:#181818;stroke-width:1;"/></g><!--reverse link IView to ConsoleView--><g class="link" data-entity-1="IView" data-entity-2="ConsoleView" data-source-line="25" data-uid="lnk11" id="link_IView_ConsoleView"><path codeLine="25" d="M156,242.0422 C156,263.5722 156,268.1922 156,284.4722" fill="none" id="IView-backto-ConsoleView" style="stroke:#181818;stroke-width:1;stroke-dasharray:7,7;"/><polygon fill="none" points="156,224.0422,150,242.0422,162,242.0422,156,224.0422" style="stroke:#181818;stroke-width:1;"/></g><!--reverse link IController to Controller--><g class="link" data-entity-1="IController" data-entity-2="Controller" data-source-line="33" data-uid="lnk15" id="link_IController_Controller"><path codeLine="33" d="M569,208.8922 C569,236.9422 569,259.3522 569,284.5322" fill="none" id="IController-backto-Controller" style="stroke:#181818;stroke-width:1;stroke-dasharray:7,7;"/><polygon fill="none" points="569,190.8922,563,208.8922,575,208.8922,569,190.8922" style="stroke:#181818;stroke-width:1;"/></g><!--reverse link IView to IController--><g class="link" data-entity-1="IView" data-entity-2="IController" data-source-line="35" data-uid="lnk16" id="link_IView_IController"><path codeLine="35" d="M295.8,158.4622 C352.47,158.4622 411.5,158.4622 464.54,158.4622" fill="none" id="IView-backto-IController" style="stroke:#181818;stroke-width:1;"/><polygon fill="#181818" points="289.8,158.4622,298.8,162.4622,294.8,158.4622,298.8,154.4622,289.8,158.4622" style="stroke:#181818;stroke-width:1;"/><text fill="#000000" font-family="sans-serif" font-size="13" lengthAdjust="spacing" textLength="139.5596" x="307.73" y="152.0305">Controller knows view</text></g><!--reverse link IView to IController--><g class="link" data-entity-1="IView" data-entity-2="IController" data-source-line="36" data-uid="lnk17" id="link_IView_IController"><path codeLine="36" d="M295.847,139.237 C301.537,138.737 301.2,138.8222 306.73,138.4622 C369.26,134.3322 385.27,133.3422 447.73,138.4622 C453.26,138.9122 458.92,139.4822 464.62,140.1322" fill="none" id="IView-backto-IController-1" style="stroke:#181818;stroke-width:1;stroke-dasharray:7,7;"/><polygon fill="#181818" points="289.87,139.7622,299.1856,142.959,294.8508,139.3245,298.4853,134.9897,289.87,139.7622" style="stroke:#181818;stroke-width:1;"/><text fill="#000000" font-family="sans-serif" font-size="13" lengthAdjust="spacing" textLength="55.0088" x="349.73" y="129.0305">Set array</text></g><!--link IView to IController--><g class="link" data-entity-1="IView" data-entity-2="IController" data-source-line="42" data-uid="lnk24" id="link_IView_IController"><path codeLine="42" d="M289.65,175.9122 C300.82,176.9422 311.96,177.8222 322.73,178.4622 C371.09,181.3522 383.41,181.9622 431.73,178.4622 C442.42,177.6822 447.5815,177.2867 458.6615,175.9767" fill="none" id="IView-to-IController" style="stroke:#181818;stroke-width:1;stroke-dasharray:7,7;"/><polygon fill="#181818" points="464.62,175.2722,455.2126,172.3566,459.6546,175.8593,456.1519,180.3012,464.62,175.2722" style="stroke:#181818;stroke-width:1;"/><text fill="#000000" font-family="sans-serif" font-size="13" lengthAdjust="spacing" textLength="107.2373" x="323.73" y="175.0305">Send view events</text></g><!--reverse link SortingAlgorithm to IController--><g class="link" data-entity-1="SortingAlgorithm" data-entity-2="IController" data-source-line="38" data-uid="lnk19" id="link_SortingAlgorithm_IController"><path codeLine="38" d="M925.32,158.4622 C846.76,158.4622 749.71,158.4622 673.6,158.4622" fill="none" id="SortingAlgorithm-backto-IController" style="stroke:#181818;stroke-width:1;"/><polygon fill="#181818" points="931.32,158.4622,922.32,154.4622,926.32,158.4622,922.32,162.4622,931.32,158.4622" style="stroke:#181818;stroke-width:1;"/><text fill="#000000" font-family="sans-serif" font-size="13" lengthAdjust="spacing" textLength="222.6377" x="691.36" y="152.0305">Controller knows current algorithm</text></g><!--reverse link SortingAlgorithm to IController--><g class="link" data-entity-1="SortingAlgorithm" data-entity-2="IController" data-source-line="39" data-uid="lnk21" id="link_SortingAlgorithm_IController"><path codeLine="39" d="M925.1835,175.6349 C911.7935,177.0549 904.28,177.6322 891.36,178.4622 C812.41,183.5122 792.29,183.9022 713.36,178.4622 C700.36,177.5622 686.75,176.2222 673.3,174.6422" fill="none" id="SortingAlgorithm-backto-IController-1" style="stroke:#181818;stroke-width:1;stroke-dasharray:7,7;"/><polygon fill="#181818" points="931.15,175.0022,921.7784,171.9736,926.1779,175.5295,922.622,179.929,931.15,175.0022" style="stroke:#181818;stroke-width:1;"/><text fill="#000000" font-family="sans-serif" font-size="13" lengthAdjust="spacing" textLength="176.4521" x="714.36" y="175.0305">Restart or change algorithm</text></g><!--link SortingAlgorithm to IView--><g class="link" data-entity-1="SortingAlgorithm" data-entity-2="IView" data-source-line="41" data-uid="lnk23" id="link_SortingAlgorithm_IView"><path codeLine="41" d="M931.23,109.9122 C862.25,83.6322 772.19,53.8722 689,40.5322 C583.68,23.6222 553.72,20.2422 449,40.5322 C394.49,51.0822 342.7851,69.3792 293.5151,90.4892" fill="none" id="SortingAlgorithm-to-IView" style="stroke:#181818;stroke-width:1;stroke-dasharray:7,7;"/><polygon fill="#181818" points="288,92.8522,297.848,92.9845,292.5959,90.883,294.6973,85.631,288,92.8522" style="stroke:#181818;stroke-width:1;"/><text fill="#000000" font-family="sans-serif" font-size="13" lengthAdjust="spacing" textLength="124.2173" x="549" y="19.8105">Send sorting events</text></g><!--SRC=[XPF1Ri8m44Jl-OezfeVu0og4HAjAhSIfaNgfUZ394gmQkrelGHNqtskRaZWb0KvcFVioCr7aoZ79Yg7IqZdOsXgrA2snCir2DvOKRxQ73Fpl_pHNXjy_xk9TF8BpYlmqQAsgGTRrKuk6byen6gJyvKtXFX4GRcsBevgVB4ijFUnMAut1mc3yZF8h3hDnvp0x5iKbuhQu1_jeI6jP8RJUc8ZsuD1di2ReOeQyEoKP7VA2I7wdTNKNvqUxl6JoNWQ2o_eUhM6oMYFTAZ5LTbN60Fx6MOqXHfObaMP78KOKVVogGue4FwmYx9ogw4x9ynD23_2Nu-1eQ68bzLsGQZPSJFcxX-JFfx7xKmy3X8W8COqeaK66jpZfjj2uvc8-yGMDkQXsHBuVa6VH55e4jBY2VaN7aXWiGRMHfi64ESmPITEW4aqTls8_1mnlpwNxVpNDh_Na0M7ZlFqB]--></g></svg>