<svg xmlns="http://www.w3.org/2000/svg" xmlns:xlink="http://www.w3.org/1999/xlink" contentStyleType="text/css" data-diagram-type="CLASS" height="268px" preserveAspectRatio="none" style="width:281px;height:268px;background:#FFFFFF;" version="1.1" viewBox="0 0 281 268" width="281px" zoomAndPan="magnify"><defs/><g><!--class Runnable--><g class="entity" data-entity="Runnable" data-source-line="1" data-uid="ent0002" id="entity_Runnable"><rect fill="#F1F1F1" height="64.4883" rx="2.5" ry="2.5" style="stroke:#181818;stroke-width:0.5;" width="95.3076" x="92.92" y="7"/><ellipse cx="107.92" cy="23" fill="#B4A7E5" rx="11" ry="11" style="stroke:#181818;stroke-width:1;"/><path d="M104.3477,19.2651 L104.3477,17.1069 L111.7271,17.1069 L111.7271,19.2651 L109.2618,19.2651 L109.2618,27.3418 L111.7271,27.3418 L111.7271,29.5 L104.3477,29.5 L104.3477,27.3418 L106.8131,27.3418 L106.8131,19.2651 Z " fill="#000000"/><text fill="#000000" font-family="sans-serif" font-size="14" font-style="italic" lengthAdjust="spacing" textLength="63.3076" x="121.92" y="28.291">Runnable</text><line style="stroke:#181818;stroke-width:0.5;" x1="93.92" x2="187.2276" y1="39" y2="39"/><line style="stroke:#181818;stroke-width:0.5;" x1="93.92" x2="187.2276" y1="47" y2="47"/><text fill="#000000" font-family="sans-serif" font-size="14" lengthAdjust="spacing" textLength="69.7744" x="98.92" y="64.5352">void run();</text></g><!--class IView--><g class="entity" data-entity="IView" data-source-line="5" data-uid="ent0003" id="entity_IView"><rect fill="#F1F1F1" height="130.4414" rx="2.5" ry="2.5" style="stroke:#181818;stroke-width:0.5;" width="267.1377" x="7" y="131.49"/><ellipse cx="118.4087" cy="147.49" fill="#B4A7E5" rx="11" ry="11" style="stroke:#181818;stroke-width:1;"/><path d="M114.8364,143.7551 L114.8364,141.5969 L122.2158,141.5969 L122.2158,143.7551 L119.7505,143.7551 L119.7505,151.8318 L122.2158,151.8318 L122.2158,153.99 L114.8364,153.99 L114.8364,151.8318 L117.3018,151.8318 L117.3018,143.7551 Z " fill="#000000"/><text fill="#000000" font-family="sans-serif" font-size="14" font-style="italic" lengthAdjust="spacing" textLength="35.8203" x="138.9087" y="152.781">IView</text><line style="stroke:#181818;stroke-width:0.5;" x1="8" x2="273.1377" y1="163.49" y2="163.49"/><line style="stroke:#181818;stroke-width:0.5;" x1="8" x2="273.1377" y1="171.49" y2="171.49"/><text fill="#000000" font-family="sans-serif" font-size="14" lengthAdjust="spacing" textLength="186.8535" x="13" y="189.0252">void onSortEvent(SortEvent)</text><text fill="#000000" font-family="sans-serif" font-size="14" lengthAdjust="spacing" textLength="125.6514" x="13" y="205.5134">void setArray(int[])</text><text fill="#000000" font-family="sans-serif" font-size="14" lengthAdjust="spacing" textLength="186.4297" x="13" y="222.0017">void setAlgorithms(String[])</text><text fill="#000000" font-family="sans-serif" font-size="14" lengthAdjust="spacing" textLength="230.248" x="13" y="238.49">void addEventListener(IController)</text><text fill="#000000" font-family="sans-serif" font-size="14" lengthAdjust="spacing" textLength="255.1377" x="13" y="254.9783">void removeEventListener(IController)</text></g><!--reverse link Runnable to IView--><g class="link" data-entity-1="Runnable" data-entity-2="IView" data-source-line="13" data-uid="lnk4" id="link_Runnable_IView"><path codeLine="13" d="M140.57,89.71 C140.57,106.83 140.57,110.66 140.57,131.22" fill="none" id="Runnable-backto-IView" style="stroke:#181818;stroke-width:1;stroke-dasharray:7,7;"/><polygon fill="none" points="140.57,71.71,134.57,89.71,146.57,89.71,140.57,71.71" style="stroke:#181818;stroke-width:1;"/></g><!--SRC=[VO-n2W8n44JxV4NAN7C_e8s8nO6L1pPY4SrwBkHsOMyl8kg_6nJYQU5K0_COPf0KvEIFO3SZaJz4i3TZin9Zi3AIgsRcOGmMhjaYNAOGKykYgmIahhZgam-W2n5_TRbZj_y9OiU2Uku7rweWTL-03-5LjiP1WK1SisHIuHX19fX0pmd-a7b_UJU_r_NxmnC0]--></g></svg>